<svg width="56" height="58" viewBox="0 0 56 58" fill="none" xmlns="http://www.w3.org/2000/svg">
<path d="M23.328 48.184L9.184 48.792L10.048 40.728L7.456 40.184L6.4 43.8L0 41.912L6.208 21.016L18.08 22.872L23.328 48.184ZM10.944 31.128L10.304 30.936L8.608 36.536L10.4 37.016L10.944 31.128ZM55.6965 46.136L41.9045 46.776L41.2325 36.888L39.6005 39.992L37.6165 37.88L38.2885 46.232L28.3045 47.992L31.3125 21.112L40.3365 29.592L46.2885 22.616L55.6965 46.136Z" fill="white"/>
<path d="M19.0298 19.833C18.9991 18.364 18.9017 17.4308 18.7793 17.4333C18.6691 17.4356 18.5733 17.1671 18.5664 16.8365C18.5595 16.506 18.4637 16.2375 18.3535 16.2398C18.2434 16.242 18.1495 16.0636 18.1449 15.8433C18.1403 15.6229 18.0463 15.4445 17.9362 15.4468C17.826 15.4491 17.7321 15.2707 17.7275 15.0504C17.7229 14.83 17.6289 14.6516 17.5188 14.6539C17.4086 14.6562 17.3156 14.5205 17.3121 14.3523C17.3038 13.9548 15.5677 12.2897 15.1702 12.298C15.002 12.3015 14.8626 12.2142 14.8603 12.1041C14.858 11.9939 14.6758 11.9075 14.4554 11.9121C14.2351 11.9167 14.0529 11.8303 14.0506 11.7201C14.0481 11.5999 13.2451 11.5365 12.0432 11.5616C10.8413 11.5867 10.0416 11.6836 10.0441 11.8038C10.0464 11.9139 9.77789 12.0097 9.44736 12.0166C9.11682 12.0235 8.84827 12.1193 8.85057 12.2295C8.85287 12.3397 8.69436 12.4332 8.49833 12.4372C8.3023 12.4413 8.01572 12.6277 7.8615 12.8514C7.70728 13.075 7.46411 13.2605 7.32112 13.2635C7.00721 13.27 4.51668 15.8289 4.52313 16.1382C4.52949 16.443 4.0217 16.9397 3.69671 16.9465C3.5479 16.9496 3.29244 16.7745 3.12902 16.5575C2.9656 16.3405 2.6715 16.1662 2.47546 16.1703C2.27943 16.1744 2.11715 16.0876 2.11486 15.9774C2.11256 15.8673 1.93039 15.7809 1.71003 15.7855C1.48968 15.7901 1.30751 15.7037 1.30521 15.5935C1.30291 15.4834 1.48131 15.3894 1.70167 15.3848C1.92202 15.3802 2.10419 15.4667 2.10649 15.5768C2.10879 15.687 2.29097 15.7734 2.51133 15.7688C2.73168 15.7642 2.91385 15.8506 2.91615 15.9607C2.91845 16.0709 3.10062 16.1573 3.32097 16.1527C3.54133 16.1481 3.71973 16.0541 3.71744 15.944C3.71514 15.8338 3.62312 15.7456 3.51294 15.7479C3.40276 15.7502 3.30954 15.6049 3.30579 15.425C3.30203 15.2451 3.10069 14.9331 2.85836 14.7316C2.61604 14.5301 2.47346 14.3072 2.54152 14.2363C2.60958 14.1653 2.93535 14.3845 3.26545 14.7235C4.00934 15.4872 4.10875 15.4884 4.093 14.7337C4.0861 14.4032 4.17059 14.1308 4.28078 14.1285C4.39095 14.1262 4.48486 14.3047 4.48946 14.525C4.49406 14.7454 4.54675 14.9246 4.60656 14.9234C4.66636 14.9221 5.41369 14.1851 6.26728 13.2854C7.12088 12.3858 7.95835 11.6469 8.12833 11.6433C8.29831 11.6398 8.4355 11.5467 8.4332 11.4365C8.4309 11.3264 8.60931 11.2325 8.82966 11.2279C9.05002 11.2233 9.22843 11.1293 9.22614 11.0192C9.22384 10.909 9.58253 10.8113 10.0232 10.8021C10.4639 10.7929 10.8227 10.6953 10.8204 10.5851C10.818 10.4706 11.4171 10.3722 12.2184 10.3555C13.0197 10.3388 13.6225 10.4121 13.6249 10.5266C13.6272 10.6367 13.8995 10.7212 14.23 10.7143C14.5605 10.7074 14.8329 10.792 14.8352 10.9021C14.8375 11.0123 14.9835 11.0994 15.1596 11.0958C15.3358 11.0921 15.7382 11.3542 16.0538 11.6783C16.3695 12.0024 16.7719 12.2646 16.948 12.2609C17.1242 12.2572 17.2717 12.4146 17.2757 12.6106C17.2798 12.8067 17.4662 13.0932 17.6898 13.2475C17.9135 13.4017 18.0999 13.6883 18.104 13.8843C18.1081 14.0803 18.2016 14.2388 18.3117 14.2365C18.4219 14.2342 18.5158 14.4126 18.5204 14.633C18.525 14.8533 18.6189 15.0318 18.7291 15.0295C18.8393 15.0272 18.9351 15.2957 18.942 15.6262C18.9489 15.9568 19.0447 16.2253 19.1548 16.223C19.2795 16.2204 19.3788 17.354 19.4179 19.2237C19.4569 21.0934 19.4049 22.2301 19.2803 22.2327C19.1578 22.2353 19.0604 21.3021 19.0298 19.833ZM29.8346 19.0063C29.8012 17.4037 29.8573 16.4005 29.9806 16.3979C30.0908 16.3956 30.1734 16.0331 30.1642 15.5924C30.155 15.1517 30.2377 14.7893 30.3478 14.787C30.458 14.7847 30.5444 14.6025 30.5398 14.3821C30.5352 14.1618 30.6216 13.9796 30.7317 13.9773C30.8419 13.975 30.9292 13.8362 30.9257 13.6689C30.9174 13.2727 33.3699 10.7157 33.7661 10.7074C33.9334 10.7039 34.0684 10.6109 34.0661 10.5007C34.0638 10.3906 34.4225 10.2929 34.8633 10.2837C35.304 10.2745 35.6627 10.1768 35.6604 10.0667C35.658 9.95537 36.1904 9.85519 36.8581 9.84126C37.5259 9.82732 38.0619 9.90521 38.0642 10.0165C38.0665 10.1267 38.429 10.2093 38.8697 10.2001C39.3104 10.1909 39.6729 10.2735 39.6752 10.3837C39.6775 10.4938 39.8596 10.5802 40.08 10.5756C40.3004 10.571 40.4825 10.6575 40.4848 10.7676C40.4871 10.8778 40.6331 10.9649 40.8093 10.9612C40.9854 10.9576 41.3878 11.2197 41.7035 11.5438C42.0191 11.8679 42.3829 12.1309 42.5118 12.1282C42.8096 12.122 43.3291 12.6136 43.3352 12.9074C43.3399 13.1325 44.2493 14.096 44.4531 14.0917C44.5132 14.0905 44.5586 13.9092 44.554 13.6888C44.5494 13.4685 44.6358 13.2863 44.7459 13.284C44.8561 13.2817 44.9433 13.1382 44.9397 12.965C44.9314 12.5685 45.4916 11.967 45.6841 12.1657C45.7632 12.2474 45.7161 12.3568 45.5794 12.4089C45.4427 12.461 45.3345 12.6763 45.3389 12.8875C45.3433 13.0987 45.2567 13.2733 45.1466 13.2756C45.0364 13.2779 44.9519 13.5503 44.9588 13.8808C44.9745 14.6355 45.0739 14.6302 45.7852 13.836C46.1009 13.4836 46.4172 13.251 46.4882 13.3191C46.5591 13.3871 46.426 13.6158 46.1923 13.8272C45.9586 14.0386 45.7704 14.3587 45.7742 14.5386C45.7779 14.7185 45.6908 14.8676 45.5807 14.8699C45.4705 14.8722 45.3822 14.9642 45.3845 15.0744C45.3868 15.1845 45.569 15.2709 45.7894 15.2663C46.0097 15.2617 46.1881 15.1678 46.1858 15.0576C46.1835 14.9475 46.3619 14.8536 46.5823 14.849C46.8026 14.8444 46.981 14.7504 46.9787 14.6403C46.9764 14.5301 47.1549 14.4362 47.3752 14.4316C47.5956 14.427 47.7778 14.5134 47.7801 14.6236C47.7824 14.7337 47.6039 14.8276 47.3836 14.8322C47.1632 14.8368 46.9848 14.9308 46.9871 15.0409C46.9894 15.1511 46.8496 15.2442 46.6765 15.2478C46.2036 15.2577 45.8 15.7741 45.8121 16.3538C45.818 16.6371 45.7326 16.8708 45.6225 16.8731C45.5123 16.8754 45.4184 16.697 45.4138 16.4766C45.4092 16.2563 45.3153 16.0779 45.2051 16.0802C45.0949 16.0825 45.0019 15.9478 44.9985 15.781C44.995 15.6141 44.2112 14.7287 43.2568 13.8132C42.3023 12.8978 41.3849 12.1517 41.2181 12.1552C41.0512 12.1587 40.9128 12.0713 40.9105 11.9612C40.9082 11.851 40.7261 11.7646 40.5057 11.7692C40.2854 11.7738 40.1032 11.6874 40.1009 11.5773C40.0986 11.4671 39.9164 11.3807 39.6961 11.3853C39.4757 11.3899 39.2935 11.3035 39.2912 11.1933C39.2887 11.0719 38.419 11.0111 37.0835 11.039C35.748 11.0669 34.8816 11.1639 34.8841 11.2853C34.8864 11.3955 34.708 11.4894 34.4877 11.494C34.2673 11.4986 34.0889 11.5925 34.0912 11.7027C34.0935 11.8129 33.9572 11.9059 33.7882 11.9094C33.4133 11.9172 32.119 13.2315 32.1266 13.5967C32.1296 13.7413 31.9545 13.9933 31.7375 14.1567C31.5205 14.3201 31.3462 14.6143 31.3503 14.8103C31.3544 15.0063 31.2676 15.1686 31.1574 15.1709C31.0473 15.1732 30.9609 15.3554 30.9655 15.5757C30.9701 15.7961 30.8837 15.9782 30.7735 15.9805C30.6634 15.9828 30.5807 16.3453 30.5899 16.786C30.5991 17.2267 30.5165 17.5892 30.4063 17.5915C30.2861 17.594 30.2227 18.397 30.2478 19.5989C30.2729 20.8008 30.2095 21.6038 30.0893 21.6063C29.966 21.6089 29.8681 20.6089 29.8346 19.0063L29.8346 19.0063ZM3.35024 17.5549C3.34794 17.4448 3.4362 17.3527 3.54638 17.3504C3.65656 17.3481 3.74858 17.4364 3.75088 17.5466C3.75318 17.6567 3.66493 17.7488 3.55475 17.7511C3.44457 17.7534 3.35254 17.6651 3.35024 17.5549ZM46.9453 13.0377C46.943 12.9275 47.0313 12.8355 47.1415 12.8332C47.2516 12.8309 47.3437 12.9192 47.346 13.0293C47.3483 13.1395 47.26 13.2315 47.1498 13.2338C47.0397 13.2361 46.9476 13.1478 46.9453 13.0377ZM3.66726 13.5401C3.66496 13.43 3.75323 13.3379 3.86341 13.3356C3.97358 13.3333 4.06562 13.4216 4.06792 13.5318C4.07021 13.6419 3.98195 13.734 3.87177 13.7363C3.7616 13.7386 3.66956 13.6503 3.66726 13.5401ZM44.1948 6.08075C43.5753 5.44557 42.9467 4.923 42.798 4.91948C42.6492 4.916 42.2693 4.64792 41.9536 4.32383C41.638 3.99975 41.2555 3.73717 41.1036 3.74034C40.9518 3.74351 40.6939 3.56853 40.5305 3.35149C40.367 3.13445 40.0729 2.96022 39.8769 2.96431C39.6809 2.9684 39.5186 2.88161 39.5163 2.77142C39.514 2.66125 39.3318 2.57486 39.1115 2.57946C38.8911 2.58406 38.709 2.49769 38.7067 2.38751C38.7044 2.27733 38.5222 2.19094 38.3018 2.19554C38.0815 2.20014 37.8993 2.11376 37.897 2.00358C37.8947 1.8934 37.6224 1.8089 37.2918 1.8158C36.9613 1.8227 36.689 1.7382 36.6867 1.62802C36.6844 1.51785 36.3219 1.43522 35.8812 1.44442C35.4405 1.45362 35.0781 1.37101 35.0758 1.26082C35.0734 1.14635 34.4706 1.07304 33.6693 1.08977C32.868 1.10649 32.2653 1.03317 32.2629 0.918706C32.2606 0.808533 32.7094 0.708982 33.2603 0.697485C33.8112 0.685987 34.26 0.586437 34.2577 0.476254C34.2554 0.366081 34.7043 0.26653 35.2552 0.255033C35.8061 0.243535 36.2587 0.324262 36.261 0.434445C36.2633 0.544618 36.7159 0.625364 37.2668 0.613866C37.8176 0.602369 38.2703 0.683095 38.2726 0.793278C38.2749 0.903451 38.457 0.989841 38.6774 0.985242C38.8977 0.980643 39.0799 1.06702 39.0822 1.17721C39.0845 1.28738 39.2667 1.37376 39.487 1.36916C39.7074 1.36456 39.8896 1.45095 39.8919 1.56113C39.8942 1.6713 40.0763 1.75769 40.2967 1.75309C40.517 1.74849 40.6992 1.83486 40.7015 1.94504C40.7038 2.05522 40.8424 2.14252 41.0094 2.13903C41.3788 2.13132 44.3719 4.96351 44.3795 5.32798C44.3825 5.4707 44.5679 5.71366 44.7916 5.86788C45.0153 6.0221 45.2016 6.30868 45.2057 6.50471C45.2098 6.70074 45.3033 6.85926 45.4135 6.85696C45.5236 6.85466 45.6157 6.94291 45.618 7.05309C45.6261 7.44036 45.3107 7.22492 44.1948 6.08075ZM3.54351 7.61082C3.54214 7.54485 3.80617 7.2326 4.13026 6.91693C4.45435 6.60127 4.71741 6.24228 4.71484 6.11918C4.70831 5.80597 7.19549 3.24558 7.51272 3.23896C7.65571 3.23597 7.89887 3.05053 8.0531 2.82686C8.20732 2.60319 8.4939 2.41684 8.68993 2.41275C8.88596 2.40866 9.04447 2.31517 9.04217 2.20499C9.03988 2.09481 9.21828 2.0009 9.43864 1.9963C9.65899 1.9917 9.8374 1.8978 9.8351 1.78762C9.8328 1.67745 10.0112 1.58353 10.2316 1.57893C10.4519 1.57433 10.6303 1.48042 10.628 1.37025C10.6257 1.26007 10.9844 1.1624 11.4251 1.15321C11.8658 1.14401 12.2245 1.04634 12.2222 0.936156C12.2199 0.821685 12.819 0.723296 13.6203 0.706573C14.4216 0.689849 15.0244 0.763147 15.0268 0.877623C15.0291 0.987796 15.3014 1.0723 15.6319 1.06541C15.9624 1.05851 16.2348 1.143 16.2371 1.25318C16.2394 1.36335 16.3829 1.45055 16.556 1.44694C16.9525 1.43866 17.554 1.99884 17.3553 2.19134C17.2737 2.27046 17.1642 2.22336 17.1122 2.08667C16.9938 1.77576 12.6415 1.81774 12.648 2.12973C12.6503 2.2399 12.3817 2.3357 12.0512 2.3426C11.7207 2.3495 11.4521 2.44528 11.4544 2.55546C11.4567 2.66563 11.208 2.76101 10.9018 2.76741C10.5749 2.77423 10.2294 2.94688 10.0647 3.18569C9.91047 3.40936 9.62389 3.59572 9.42786 3.59981C9.23183 3.6039 9.07332 3.69738 9.07562 3.80757C9.07792 3.91774 8.91941 4.01124 8.72338 4.01533C8.52734 4.01942 8.24077 4.20577 8.08654 4.42944C7.93232 4.65311 7.68192 4.83871 7.53009 4.84188C7.37826 4.84505 7.00706 5.12335 6.7052 5.46033C6.40333 5.7973 6.04839 6.07526 5.91644 6.07801C5.7845 6.08077 5.42957 6.35873 5.1277 6.6957C4.82584 7.03268 4.43473 7.3114 4.25858 7.31507C4.08243 7.31875 3.94019 7.4119 3.94249 7.52208C3.94479 7.63226 3.85653 7.72429 3.74634 7.72659C3.63617 7.72889 3.54489 7.67679 3.54351 7.61082Z" fill="white"/>
</svg>
